<mxfile host="65bd71144e">
    <diagram id="q36Y6JDXFtxIeDjKPLrf" name="Page-1">
        <mxGraphModel dx="2601" dy="739" grid="1" gridSize="10" guides="1" tooltips="1" connect="1" arrows="1" fold="1" page="1" pageScale="1" pageWidth="850" pageHeight="1100" math="0" shadow="0">
            <root>
                <mxCell id="0"/>
                <mxCell id="1" parent="0"/>
                <mxCell id="90" value="" style="whiteSpace=wrap;html=1;fontSize=17;strokeWidth=2;fillColor=#f5f5f5;strokeColor=#666666;gradientColor=#b3b3b3;" parent="1" vertex="1">
                    <mxGeometry x="-780" y="90" width="970" height="600" as="geometry"/>
                </mxCell>
                <mxCell id="82" value="" style="whiteSpace=wrap;html=1;fontSize=15;fontColor=#000000;fillColor=none;strokeWidth=2;" parent="1" vertex="1">
                    <mxGeometry x="-357" y="486" width="130" height="70" as="geometry"/>
                </mxCell>
                <mxCell id="60" value="" style="whiteSpace=wrap;html=1;fontSize=15;fontColor=#000000;fillColor=none;strokeWidth=2;" parent="1" vertex="1">
                    <mxGeometry x="-440" y="410" width="290" height="240" as="geometry"/>
                </mxCell>
                <mxCell id="81" value="" style="html=1;verticalLabelPosition=bottom;align=center;labelBackgroundColor=#ffffff;verticalAlign=top;strokeWidth=2;strokeColor=none;shadow=0;dashed=0;shape=mxgraph.ios7.icons.cloud;fillColor=#6D8764;" parent="1" vertex="1">
                    <mxGeometry x="-130" y="110" width="250" height="130" as="geometry"/>
                </mxCell>
                <mxCell id="80" value="" style="html=1;verticalLabelPosition=bottom;align=center;labelBackgroundColor=#ffffff;verticalAlign=top;strokeWidth=2;strokeColor=none;shadow=0;dashed=0;shape=mxgraph.ios7.icons.cloud;fillColor=#F0A30A;" parent="1" vertex="1">
                    <mxGeometry x="-440" y="110" width="250" height="130" as="geometry"/>
                </mxCell>
                <mxCell id="9" value="&lt;font style=&quot;font-size: 26px&quot; color=&quot;#ffffff&quot;&gt;none&lt;/font&gt;" style="text;html=1;resizable=0;autosize=1;align=center;verticalAlign=middle;points=[];rounded=0;" parent="1" vertex="1">
                    <mxGeometry x="-353" y="180" width="70" height="20" as="geometry"/>
                </mxCell>
                <mxCell id="11" value="&lt;font style=&quot;font-size: 26px&quot; color=&quot;#ffffff&quot;&gt;Host&lt;/font&gt;" style="text;html=1;resizable=0;autosize=1;align=center;verticalAlign=middle;points=[];rounded=0;" parent="1" vertex="1">
                    <mxGeometry x="-30" y="180" width="70" height="20" as="geometry"/>
                </mxCell>
                <mxCell id="12" value="&lt;font style=&quot;font-size: 19px&quot;&gt;ducker run ubuntu&lt;/font&gt;" style="whiteSpace=wrap;html=1;fontSize=26;fontColor=#FFFFFF;fillColor=#3399FF;" parent="1" vertex="1">
                    <mxGeometry x="-747.5" y="270" width="265" height="50" as="geometry"/>
                </mxCell>
                <mxCell id="13" value="" style="group" parent="1" vertex="1" connectable="0">
                    <mxGeometry x="-740" y="120" width="250" height="130" as="geometry"/>
                </mxCell>
                <mxCell id="2" value="" style="html=1;verticalLabelPosition=bottom;align=center;labelBackgroundColor=#ffffff;verticalAlign=top;strokeWidth=2;strokeColor=none;shadow=0;dashed=0;shape=mxgraph.ios7.icons.cloud;fillColor=#3399FF;" parent="13" vertex="1">
                    <mxGeometry width="250" height="130" as="geometry"/>
                </mxCell>
                <mxCell id="3" value="&lt;font style=&quot;font-size: 26px&quot; color=&quot;#ffffff&quot;&gt;Bridge&lt;/font&gt;" style="text;html=1;resizable=0;autosize=1;align=center;verticalAlign=middle;points=[];rounded=0;" parent="13" vertex="1">
                    <mxGeometry x="89.99749999999999" y="72.2222222222222" width="90" height="20" as="geometry"/>
                </mxCell>
                <mxCell id="14" value="&lt;font style=&quot;font-size: 19px&quot;&gt;&lt;font color=&quot;#ffffff&quot;&gt;ducker run --network=none&lt;br&gt;ubuntu&amp;nbsp;&lt;/font&gt;&lt;br&gt;&lt;/font&gt;" style="whiteSpace=wrap;html=1;fontSize=26;fontColor=#000000;fillColor=#f0a30a;strokeColor=#BD7000;" parent="1" vertex="1">
                    <mxGeometry x="-440" y="270" width="267.5" height="90" as="geometry"/>
                </mxCell>
                <mxCell id="15" value="&lt;font style=&quot;font-size: 19px&quot;&gt;&lt;font color=&quot;#ffffff&quot;&gt;ducker run --network=host&lt;br&gt;ubuntu&amp;nbsp;&lt;/font&gt;&lt;br&gt;&lt;/font&gt;" style="whiteSpace=wrap;html=1;fontSize=26;fontColor=#ffffff;fillColor=#6d8764;strokeColor=#3A5431;" parent="1" vertex="1">
                    <mxGeometry x="-130" y="260" width="270" height="90" as="geometry"/>
                </mxCell>
                <mxCell id="43" value="" style="group" parent="1" vertex="1" connectable="0">
                    <mxGeometry x="-750" y="380" width="290" height="270" as="geometry"/>
                </mxCell>
                <mxCell id="17" value="&lt;font color=&quot;#ffffff&quot;&gt;Container&lt;/font&gt;" style="whiteSpace=wrap;html=1;fontSize=19;fillColor=#b0e3e6;strokeColor=#0e8088;" parent="43" vertex="1">
                    <mxGeometry x="20" y="40" width="100" height="40" as="geometry"/>
                </mxCell>
                <mxCell id="18" value="&lt;font color=&quot;#ffffff&quot;&gt;Container&lt;/font&gt;" style="whiteSpace=wrap;html=1;fontSize=19;fillColor=#b0e3e6;strokeColor=#0e8088;" parent="43" vertex="1">
                    <mxGeometry x="150" y="40" width="100" height="40" as="geometry"/>
                </mxCell>
                <mxCell id="19" value="&lt;font color=&quot;#ffffff&quot;&gt;Container&lt;/font&gt;" style="whiteSpace=wrap;html=1;fontSize=19;fillColor=#b0e3e6;strokeColor=#0e8088;" parent="43" vertex="1">
                    <mxGeometry x="30" y="210" width="100" height="40" as="geometry"/>
                </mxCell>
                <mxCell id="20" value="&lt;font color=&quot;#ffffff&quot;&gt;Container&lt;/font&gt;" style="whiteSpace=wrap;html=1;fontSize=19;fillColor=#b0e3e6;strokeColor=#0e8088;" parent="43" vertex="1">
                    <mxGeometry x="160" y="210" width="100" height="40" as="geometry"/>
                </mxCell>
                <mxCell id="21" value="" style="html=1;verticalLabelPosition=bottom;align=center;labelBackgroundColor=#ffffff;verticalAlign=top;strokeWidth=2;strokeColor=none;shadow=0;dashed=0;shape=mxgraph.ios7.icons.cloud;fillColor=#f0a30a;fontColor=#000000;" parent="43" vertex="1">
                    <mxGeometry x="80" y="110" width="120" height="60" as="geometry"/>
                </mxCell>
                <mxCell id="23" style="edgeStyle=orthogonalEdgeStyle;html=1;fontSize=20;fontColor=#FFFFFF;endArrow=none;endFill=0;elbow=vertical;entryX=0.136;entryY=0.435;entryDx=0;entryDy=0;entryPerimeter=0;" parent="43" source="17" target="21" edge="1">
                    <mxGeometry relative="1" as="geometry"/>
                </mxCell>
                <mxCell id="29" style="edgeStyle=orthogonalEdgeStyle;html=1;entryX=0.162;entryY=1.005;entryDx=0;entryDy=0;entryPerimeter=0;fontSize=20;fontColor=#FFFFFF;endArrow=none;endFill=0;elbow=vertical;" parent="43" source="19" target="21" edge="1">
                    <mxGeometry relative="1" as="geometry"/>
                </mxCell>
                <mxCell id="28" style="edgeStyle=orthogonalEdgeStyle;html=1;entryX=0.833;entryY=1;entryDx=0;entryDy=0;entryPerimeter=0;fontSize=20;fontColor=#FFFFFF;endArrow=none;endFill=0;elbow=vertical;" parent="43" source="20" target="21" edge="1">
                    <mxGeometry relative="1" as="geometry"/>
                </mxCell>
                <mxCell id="22" value="&lt;font style=&quot;font-size: 20px&quot; color=&quot;#ffffff&quot;&gt;docker 0&lt;/font&gt;" style="text;html=1;resizable=0;autosize=1;align=center;verticalAlign=middle;points=[];rounded=0;" parent="43" vertex="1">
                    <mxGeometry x="97.5" y="140" width="90" height="20" as="geometry"/>
                </mxCell>
                <mxCell id="27" style="edgeStyle=orthogonalEdgeStyle;html=1;fontSize=20;fontColor=#FFFFFF;endArrow=none;endFill=0;elbow=vertical;entryX=0.962;entryY=-0.1;entryDx=0;entryDy=0;entryPerimeter=0;" parent="43" source="18" target="22" edge="1">
                    <mxGeometry relative="1" as="geometry"/>
                </mxCell>
                <mxCell id="34" value="&lt;font color=&quot;#000000&quot; style=&quot;font-size: 15px&quot;&gt;172.17.0.1&lt;/font&gt;" style="text;html=1;resizable=0;autosize=1;align=center;verticalAlign=middle;points=[];fillColor=none;strokeColor=none;rounded=0;fontSize=20;fontColor=#FFFFFF;" parent="43" vertex="1">
                    <mxGeometry x="95" y="160" width="90" height="30" as="geometry"/>
                </mxCell>
                <mxCell id="35" value="&lt;font color=&quot;#000000&quot; style=&quot;font-size: 15px&quot;&gt;172.17.0.4&lt;/font&gt;" style="text;html=1;resizable=0;autosize=1;align=center;verticalAlign=middle;points=[];fillColor=none;strokeColor=none;rounded=0;fontSize=20;fontColor=#FFFFFF;" parent="43" vertex="1">
                    <mxGeometry x="7.5" y="160" width="90" height="30" as="geometry"/>
                </mxCell>
                <mxCell id="36" value="&lt;font color=&quot;#000000&quot; style=&quot;font-size: 15px&quot;&gt;172.17.0.5&lt;/font&gt;" style="text;html=1;resizable=0;autosize=1;align=center;verticalAlign=middle;points=[];fillColor=none;strokeColor=none;rounded=0;fontSize=20;fontColor=#FFFFFF;" parent="43" vertex="1">
                    <mxGeometry x="180" y="160" width="90" height="30" as="geometry"/>
                </mxCell>
                <mxCell id="37" value="&lt;font color=&quot;#000000&quot; style=&quot;font-size: 15px&quot;&gt;172.17.0.3&lt;/font&gt;" style="text;html=1;resizable=0;autosize=1;align=center;verticalAlign=middle;points=[];fillColor=none;strokeColor=none;rounded=0;fontSize=20;fontColor=#FFFFFF;" parent="43" vertex="1">
                    <mxGeometry x="180" y="110" width="90" height="30" as="geometry"/>
                </mxCell>
                <mxCell id="38" value="&lt;font color=&quot;#000000&quot; style=&quot;font-size: 15px&quot;&gt;172.17.0.2&lt;/font&gt;" style="text;html=1;resizable=0;autosize=1;align=center;verticalAlign=middle;points=[];fillColor=none;strokeColor=none;rounded=0;fontSize=20;fontColor=#FFFFFF;" parent="43" vertex="1">
                    <mxGeometry x="5" y="110" width="90" height="30" as="geometry"/>
                </mxCell>
                <mxCell id="40" value="" style="whiteSpace=wrap;html=1;fontSize=15;fontColor=#000000;fillColor=none;strokeWidth=2;" parent="43" vertex="1">
                    <mxGeometry y="30" width="290" height="240" as="geometry"/>
                </mxCell>
                <mxCell id="41" value="&lt;font style=&quot;font-size: 20px&quot;&gt;Docker Host&lt;/font&gt;" style="text;html=1;resizable=0;autosize=1;align=center;verticalAlign=middle;points=[];fillColor=none;strokeColor=none;rounded=0;fontSize=15;fontColor=#000000;" parent="43" vertex="1">
                    <mxGeometry width="130" height="30" as="geometry"/>
                </mxCell>
                <mxCell id="45" value="&lt;font color=&quot;#ffffff&quot;&gt;Container&lt;/font&gt;" style="whiteSpace=wrap;html=1;fontSize=19;fillColor=#b0e3e6;strokeColor=#0e8088;" parent="1" vertex="1">
                    <mxGeometry x="-340" y="500" width="100" height="40" as="geometry"/>
                </mxCell>
                <mxCell id="61" value="&lt;font style=&quot;font-size: 20px&quot;&gt;Docker Host&lt;/font&gt;" style="text;html=1;resizable=0;autosize=1;align=center;verticalAlign=middle;points=[];fillColor=none;strokeColor=none;rounded=0;fontSize=15;fontColor=#000000;" parent="1" vertex="1">
                    <mxGeometry x="-440" y="380" width="130" height="30" as="geometry"/>
                </mxCell>
                <mxCell id="83" value="" style="whiteSpace=wrap;html=1;fontSize=15;fontColor=#000000;fillColor=none;strokeWidth=2;" parent="1" vertex="1">
                    <mxGeometry x="-130" y="410" width="290" height="240" as="geometry"/>
                </mxCell>
                <mxCell id="84" value="&lt;div&gt;&lt;span style=&quot;color: rgb(255 , 255 , 255)&quot;&gt;Container&lt;/span&gt;&lt;/div&gt;" style="whiteSpace=wrap;html=1;fontSize=19;fillColor=#b0e3e6;strokeColor=#0e8088;align=center;" parent="1" vertex="1">
                    <mxGeometry x="-130" y="410" width="120" height="80" as="geometry"/>
                </mxCell>
                <mxCell id="85" value="&lt;font style=&quot;font-size: 20px&quot;&gt;Docker Host&lt;/font&gt;" style="text;html=1;resizable=0;autosize=1;align=center;verticalAlign=middle;points=[];fillColor=none;strokeColor=none;rounded=0;fontSize=15;fontColor=#000000;" parent="1" vertex="1">
                    <mxGeometry x="-130" y="380" width="130" height="30" as="geometry"/>
                </mxCell>
                <mxCell id="89" value="&lt;font color=&quot;#ffffff&quot; style=&quot;font-size: 17px&quot;&gt;5000&lt;/font&gt;" style="whiteSpace=wrap;html=1;fontSize=19;fillColor=#6a00ff;strokeColor=#3700CC;fontColor=#ffffff;" parent="1" vertex="1">
                    <mxGeometry x="-100" y="410" width="50" height="20" as="geometry"/>
                </mxCell>
            </root>
        </mxGraphModel>
    </diagram>
</mxfile>